<svg width="193" height="283" viewBox="0 0 193 283" fill="none" xmlns="http://www.w3.org/2000/svg">
    <path d="M58.0702 75.7072C54.6046 76.7781 50.7266 77.0001 47.4236 74.3843C47.1406 74.1593 47.0924 73.7483 47.3182 73.4633C47.5441 73.1784 47.9565 73.1334 48.2426 73.3583C52.5482 76.7661 58.2057 74.5703 62.0868 72.6234C65.3807 70.9705 69.9724 68.1987 73.1428 64.3829C75.3498 61.725 77.2558 57.4473 75.9852 53.4185C75.2053 50.9437 73.4349 49.0118 71.5591 46.9659C70.1711 45.451 68.7349 43.8881 67.7112 42.0612C65.8896 38.8124 65.4981 34.7627 66.6634 31.2289C68.0845 26.9181 71.6705 24.1313 74.4285 22.5564C74.6092 22.4544 78.8515 20.0545 81.191 21.0175C81.8745 21.2995 82.3412 21.8394 82.5459 22.5774C82.6423 22.9254 82.4255 23.3063 82.0853 23.3813C81.736 23.4773 81.3747 23.2704 81.2783 22.9224C81.182 22.5714 81.0013 22.3554 80.6912 22.2294C79.3995 21.6984 76.5663 22.8444 75.0849 23.6933C72.5256 25.1572 69.2076 27.7221 67.9159 31.6398C66.8621 34.8317 67.2174 38.4914 68.8613 41.4253C69.8098 43.1172 71.1948 44.6261 72.5316 46.084C74.4225 48.1449 76.3766 50.2777 77.2437 53.0286C78.436 56.8203 77.2558 61.4911 74.1605 65.2228C70.8455 69.2156 66.0913 72.0894 62.6829 73.7993C61.316 74.4833 59.7443 75.1942 58.0762 75.7102L58.0702 75.7072Z" fill="#0A0C0F"/>
    <path d="M167.812 165.726C169.628 164.634 171.612 164.361 173.256 164.976C175.448 165.795 177.146 167.958 177.579 170.49C177.974 172.794 177.36 175.397 175.893 177.641C173.969 180.584 170.374 183.725 166.677 184.1C161.595 184.619 156.353 181.436 154.486 176.696C153.369 173.862 153.354 170.589 153.342 167.421C153.324 163.206 153.305 158.847 150.695 155.419C144.797 147.67 134.77 153.964 131.838 156.079C131.543 156.292 131.476 156.7 131.69 156.994C131.904 157.288 132.316 157.35 132.608 157.141C135.297 155.203 144.468 149.41 149.647 156.211C151.993 159.288 152.008 163.242 152.026 167.424C152.041 170.712 152.056 174.11 153.26 177.17C155.335 182.438 161.161 185.972 166.812 185.396C167.43 185.333 168.044 185.201 168.649 185.015C172.085 183.953 175.216 181.073 176.995 178.346C178.639 175.829 179.326 172.881 178.877 170.259C178.365 167.277 176.339 164.715 173.716 163.737C171.693 162.981 169.293 163.293 167.132 164.592L168.411 164.334L167.86 164.832L168.219 165.033L167.812 165.717V165.726Z" fill="#0A0C0F"/>
    <path d="M34.9525 153.787C34.6062 153.895 34.2389 153.703 34.1305 153.358C33.9258 152.716 34.0432 152.002 34.4768 151.237C38.2344 144.613 68.9246 131.663 96.4354 125.09C110.876 121.641 126.788 119.466 128.137 123.71C128.246 124.055 128.056 124.424 127.71 124.532H127.707C127.36 124.64 126.993 124.448 126.885 124.106C126.177 121.881 115.374 121.914 96.7455 126.365C67.6871 133.307 38.8486 146.197 35.6239 151.882C35.377 152.32 35.2957 152.683 35.386 152.965C35.4944 153.31 35.3048 153.679 34.9585 153.787H34.9555H34.9525Z" fill="#0A0C0F"/>
    <path d="M56.0499 194.443C55.803 194.518 55.5229 194.443 55.3483 194.233C54.8786 193.666 54.707 192.892 54.8365 191.932C55.9083 183.998 78.3878 161.445 101.09 145.522C112.959 137.198 126.695 129.581 129.661 133.16C129.893 133.439 129.853 133.853 129.573 134.081C129.293 134.309 128.878 134.273 128.649 133.991C127.074 132.092 117.147 135.863 101.849 146.59C77.6441 163.566 57.0525 185.369 56.1402 192.103C56.0619 192.688 56.1372 193.123 56.363 193.396C56.5948 193.675 56.5557 194.089 56.2757 194.317C56.2064 194.374 56.1312 194.413 56.0529 194.437L56.0499 194.443Z" fill="#0A0C0F"/>
    <path d="M54.0687 184.973C53.7496 185.072 53.4033 184.916 53.2708 184.604C53.0992 184.202 53.1203 183.746 53.3401 183.248C55.5622 178.145 83.0097 163.965 108.75 154.623C116.774 151.711 135.61 145.33 137.17 148.978C137.312 149.311 137.158 149.695 136.824 149.839C136.487 149.98 136.104 149.827 135.963 149.494C135.574 148.585 128.297 148.927 109.202 155.856C82.4918 165.549 56.3871 179.54 54.5475 183.77C54.4722 183.944 54.4662 184.052 54.4812 184.094C54.6228 184.427 54.4692 184.811 54.135 184.952C54.1139 184.961 54.0928 184.97 54.0718 184.976L54.0687 184.973Z" fill="#0A0C0F"/>
    <path d="M30.0026 142.285C29.6985 142.378 29.3612 142.24 29.2167 141.946C29.1264 141.763 29.0511 141.46 29.1987 141.058C30.662 137.072 61.1384 120.771 85.0571 110.223C92.6296 106.884 99.2265 104.242 104.131 102.583C111.577 100.063 112.595 100.654 112.959 101.407C113.119 101.731 112.983 102.124 112.655 102.283C112.372 102.421 112.029 102.334 111.842 102.088C110.662 101.692 102.806 103.831 85.5871 111.423C56.592 124.208 31.2611 138.889 30.4392 141.484C30.5235 141.784 30.385 142.111 30.0929 142.252C30.0628 142.267 30.0297 142.279 29.9996 142.288L30.0026 142.285Z" fill="#0A0C0F"/>
    <path d="M29.5658 147.73C29.2918 147.814 28.9847 147.712 28.8221 147.463C28.7107 147.292 28.5963 147.004 28.6927 146.59C29.6381 142.447 58.034 122.246 80.6189 108.618C87.7638 104.308 94.0205 100.816 98.7115 98.5239C105.829 95.0441 106.916 95.5001 107.377 96.199C107.576 96.502 107.491 96.907 107.187 97.105C106.919 97.279 106.573 97.234 106.359 97.018C105.134 96.778 97.5523 99.9338 81.3024 109.737C53.9422 126.248 30.4781 144.16 29.9813 146.848C30.1048 147.133 30.0054 147.475 29.7375 147.652C29.6833 147.685 29.6291 147.712 29.5719 147.73H29.5658Z" fill="#0A0C0F"/>
    <path d="M98.6875 42.4302C98.9223 42.8742 99.1542 43.6871 99.386 44.764C100.636 50.6227 101.71 64.1399 101.641 66.1798C101.479 71.0515 101.852 76.0702 102.27 80.9539C102.325 81.5328 102.373 82.1148 102.424 82.6908C102.812 87.1965 103.008 92.2512 104.691 96.4899C106.314 100.573 109.226 104.061 111.68 107.589C113.739 110.547 115.699 113.577 117.578 116.652C121.025 122.291 124.199 128.102 127.207 133.988C129.333 138.145 131.359 142.354 133.37 146.572C133.539 146.926 133.707 147.274 133.876 147.628C135.427 150.886 137.022 154.152 138.483 157.473C139.073 158.82 139.639 160.179 140.172 161.544C140.178 161.565 140.172 161.586 140.181 161.607C140.509 163.092 141.689 164.763 142.37 166.11C143.261 167.874 144.188 169.62 145.146 171.353C146.236 173.315 147.368 175.247 148.539 177.152C149.4 178.547 150.28 179.924 151.183 181.286C155.458 187.747 160.249 193.876 165.494 199.582C167.683 201.961 170.332 204.915 169.083 208.395C167.914 211.644 164.006 211.41 161.209 210.858C154.314 209.508 149.042 204.558 143.403 200.77C140.536 198.841 137.444 197.167 134.024 196.468C133.641 196.393 133.262 196.333 132.882 196.285C135.749 202.957 140.795 208.599 145.926 213.711C149.449 217.218 153.077 220.619 156.395 224.324C157.614 225.692 158.806 227.09 159.945 228.536C161.733 230.804 163.398 233.174 164.867 235.664C169.266 243.115 171.835 251.671 170.552 260.343C169.435 267.897 165.464 275.327 158.668 279.218C154.697 281.486 150.144 282.413 145.622 282.758C145.393 282.776 145.17 282.788 144.938 282.803C140.834 283.094 136.622 283.082 132.542 282.587C129.275 282.185 125.969 281.342 123.151 279.623C122.597 279.29 122.061 278.915 121.549 278.51C118.391 275.993 116.334 272.03 116.542 267.954C116.744 264.009 119.144 260.319 122.808 258.72C126.328 257.187 130.194 258.249 133.756 259.017C135.601 259.41 137.486 259.761 139.386 259.611C141.512 259.446 143.523 258.591 145.218 257.319C147.16 255.87 148.584 253.911 149.458 251.716C150.129 250.03 150.475 248.203 150.484 246.358C150.508 241.687 148.575 237.448 145.844 233.738C144.294 231.632 142.541 229.691 140.78 227.756C139.175 225.986 137.564 224.216 135.939 222.461C130.561 216.69 124.904 211.077 118.457 206.505C117.945 207.48 117.993 208.776 118.159 209.85C119.005 215.301 122.143 219.972 125.087 224.621C126.033 226.106 126.96 227.594 127.782 229.103C128.724 230.822 131.814 236.225 131.422 239.497C131.241 240.976 130.519 243.1 129.212 243.82C125.719 245.737 122.067 241.63 119.598 239.743C115.597 236.674 111.755 234.542 107.678 231.557C104.471 229.211 101.298 226.817 98.1636 224.378C94.6318 221.621 91.1512 218.811 87.7338 215.916C83.6841 212.478 79.7247 208.926 75.8828 205.251C67.6209 197.335 59.928 188.836 53.0992 179.648C44.762 168.42 37.9272 156.243 32.9291 143.248C31.9235 140.65 30.9991 138.016 30.147 135.356C27.3559 126.626 25.0977 117.729 22.3036 109.014C20.6265 103.773 18.7537 98.6048 16.4564 93.5831C15.9506 92.4762 15.4237 91.3842 14.8757 90.2923C13.4063 89.4074 12.7138 87.4275 12.8584 85.7446C13.0872 83.1557 14.96 81.0409 16.5768 79.157C20.7771 74.2673 25.5193 69.8305 30.683 65.9548C34.0582 63.4109 37.6171 61.1191 41.3235 59.0942C43.5366 57.8853 45.7948 56.7123 48.1312 55.7584C50.29 54.8764 52.5994 54.2075 54.96 54.2405C57.7661 54.2855 60.5001 55.4764 62.4842 57.4503C64.4112 59.3642 65.0104 61.758 65.8776 64.1219C66.1636 64.9018 66.4767 65.6758 66.8772 66.4227C68.1719 68.8496 70.0025 71.0935 72.6069 72.1764C74.5972 73.0014 76.6867 72.6354 78.1832 71.0545C79.6615 69.4856 80.4474 67.3737 81.1579 65.3728C82.826 60.6451 84.4971 55.9204 86.1711 51.1927C87.2671 48.0938 88.3299 45.04 89.3506 41.9082C89.8565 40.3543 91.5396 37.6875 93.2709 37.4655C96.7093 37.0275 98.1365 41.4462 98.6664 42.4302H98.6875Z" fill="white"/>
    <path d="M64.4323 58.6621C65.2633 60.297 65.7752 62.1959 65.9017 64.1188C66.001 65.6487 65.8595 67.1936 65.447 68.6425C64.3631 72.4673 61.5689 75.9051 58.8712 78.7069C52.1418 85.7055 44.0213 91.0092 34.8922 94.366C33.5072 94.8759 32.0289 95.3649 30.5144 95.7399C28.0394 96.3578 25.4651 96.6848 23.0082 96.3578C20.6627 96.0458 18.3653 95.0229 16.4775 93.58C15.6374 92.944 14.8727 92.2241 14.2253 91.4501C10.4436 86.9084 8.54674 80.6688 7.74283 74.7261C7.65852 74.1292 7.58927 73.5352 7.52905 72.9472C7.4327 71.9993 7.10451 71.0964 6.58965 70.2924C4.29834 66.7136 2.31716 62.8528 0.718363 58.9291C0.281781 57.8521 -0.218031 56.6732 0.101126 55.5003C1.45604 50.4006 11.1331 53.7214 15.4718 55.2543C16.2276 55.5213 17.0586 55.3593 17.6788 54.8583C19.4974 53.4004 21.4244 52.0625 23.3906 50.8206C25.3386 49.5037 27.368 48.2617 29.4666 47.1728C29.8008 46.9988 30.0838 46.7498 30.2916 46.4588C30.4993 46.1738 30.6378 45.8379 30.689 45.4719C30.957 43.516 31.4749 39.7212 31.6224 38.9083C32.0138 36.6704 32.351 33.9976 34.1546 32.3927C34.9224 31.7147 35.9461 31.2497 36.9878 31.4087C39.4056 31.7747 41.2934 34.6815 42.7628 36.3884C44.759 38.7163 46.6288 41.1522 48.3239 43.711C48.5016 43.972 48.6732 44.233 48.8478 44.4969C49.727 45.8229 51.365 46.2848 52.7108 46.9718C53.2287 47.2358 53.7376 47.5178 54.2374 47.8177C55.3454 48.4807 56.4052 49.2247 57.4018 50.0346C58.6363 51.0306 59.7835 52.1315 60.8253 53.3254C62.2404 54.9483 63.4628 56.7422 64.4353 58.6591L64.4323 58.6621Z" fill="white"/>
    <path d="M101.145 122.447C96.6793 116.181 91.5397 110.502 85.6503 106.176C82.8803 104.139 79.7791 102.534 76.4098 101.751C69.3944 100.12 61.4878 102.486 57.0918 108.45C52.1509 115.152 53.4757 122.624 55.4659 130.148C57.1942 136.681 59.5457 143.053 62.4633 149.155C66.0372 156.627 70.4603 163.695 75.63 170.174C80.3632 176.102 86.0327 183.302 92.8886 186.826C94.671 187.741 96.5438 188.473 98.4377 189.127C100.317 189.775 102.253 190.486 104.24 190.708C113.712 191.755 121.537 183.731 122.329 174.8C123.151 165.507 118.524 155.493 114.85 147.187C111.237 139.015 106.715 130.274 101.142 122.453L101.145 122.447Z" fill="#EDEEF3"/>
    <path d="M58.2751 160.977C57.6849 164.838 56.0169 168.645 59.1753 171.866C61.1083 173.84 63.7459 175.061 65.5525 177.155C67.1964 179.06 68.0304 181.553 69.6684 183.461C71.225 185.273 73.4019 186.436 75.2175 187.99C80.2096 192.268 78.4392 199.75 76.0304 204.978C75.9883 205.068 75.9431 205.161 75.901 205.251C67.639 197.335 59.9461 188.836 53.1174 179.648C44.7802 168.42 37.9454 156.243 32.9473 143.248C35.359 145.642 38.5415 147.022 42.6123 146.377C45.1957 145.969 47.6857 144.844 50.3052 144.928C58.6906 145.198 59.2024 154.863 58.2751 160.974V160.977Z" fill="#A7C4FF"/>
    <path d="M93.9062 50.2206C91.5186 52.3715 90.1938 55.2783 90.1697 58.2871C90.2871 59.5321 90.6484 60.762 91.3259 61.9169C91.7805 62.6939 92.3737 63.4018 93.0662 63.9868C95.4267 65.9577 97.2122 67.0256 98.1456 70.2804C99.1603 73.8412 98.3172 79.2589 102.274 80.9568C101.855 76.0731 101.482 71.0544 101.644 66.1827C101.707 64.3198 100.816 52.8725 99.7083 46.4438C97.6578 47.4638 95.5953 48.7027 93.9092 50.2206H93.9062Z" fill="#A7C4FF"/>
    <path d="M60.8223 53.3284C57.5072 55.5633 53.4937 52.1795 49.5916 53.8384C47.6043 54.6843 45.9333 56.1063 44.1508 57.3212C42.3654 58.5391 40.3209 59.577 38.1621 59.481C33.6156 59.2771 32.6762 53.9554 31.8543 50.4846C31.5231 49.0807 31.0654 47.6498 30.2886 46.4588C30.4963 46.1738 30.6348 45.8379 30.686 45.4719C30.954 43.516 31.4719 39.7212 31.6194 38.9083C32.0108 36.6704 32.348 33.9976 34.1516 32.3927C34.9194 31.7147 35.9431 31.2497 36.9848 31.4087C39.4026 31.7747 41.2905 34.6815 42.7598 36.3884C44.756 38.7163 46.6258 41.1522 48.3209 43.711C48.4986 43.972 48.6702 44.233 48.8448 44.4969C49.724 45.8229 51.362 46.2848 52.7078 46.9718C53.2257 47.2358 53.7346 47.5178 54.2344 47.8177C55.3424 48.4807 56.4022 49.2247 57.3988 50.0346C58.6333 51.0306 59.7805 52.1315 60.8223 53.3254V53.3284Z" fill="#A7C4FF"/>
    <path d="M164.88 235.67C169.278 243.121 171.847 251.677 170.564 260.349C169.447 267.903 165.476 275.333 158.68 279.224C154.709 281.492 150.156 282.419 145.634 282.764C145.405 282.782 145.182 282.794 144.95 282.809C144.315 281.186 144.032 279.425 144.167 277.688C144.914 268.056 155.549 268.548 160.453 262.26C161.402 261.039 161.998 259.47 161.754 257.94C161.528 256.575 160.679 255.405 159.824 254.319C158.969 253.228 158.057 252.124 157.686 250.792C156.798 247.633 159.595 247.405 160.718 245.248C160.992 244.726 160.932 244.135 160.731 243.601C159.568 240.502 155.886 239.977 155.717 236.126C155.606 233.477 157.617 230.72 159.951 228.542C161.739 230.81 163.404 233.18 164.874 235.67H164.88Z" fill="#A7C4FF"/>
    <path d="M138.486 157.473C139.076 158.82 139.642 160.179 140.175 161.544C140.181 161.565 140.175 161.586 140.184 161.607C140.512 163.092 141.692 164.763 142.373 166.11C143.264 167.874 144.191 169.619 145.149 171.353C146.239 173.315 147.371 175.247 148.542 177.152C146.431 178.223 143.914 178.499 141.623 177.89C138.992 177.182 136.682 175.385 135.321 173.036C134.626 171.845 134.147 170.522 134.024 169.149C133.897 167.751 134.207 166.377 134.674 165.066C135.616 162.432 137.194 159.987 138.486 157.47V157.473Z" fill="#A7C4FF"/>
    <path d="M36.9968 72.1493C38.5685 75.4251 37.7224 79.0009 36.1568 82.1057C34.5459 85.3035 32.089 88.0933 30.987 91.5401C30.5444 92.9351 30.4691 94.333 30.5143 95.7399C30.5715 97.6718 30.8455 99.6127 30.6769 101.566C30.3818 105.09 28.0062 107.925 24.5286 108.768C23.7909 108.948 23.0533 109.023 22.3216 109.011C20.6445 103.77 18.7717 98.6017 16.4744 93.58C15.6344 92.9441 14.8696 92.2241 14.2222 91.4501C10.4405 86.9084 8.54366 80.6688 7.73975 74.7262C9.26026 75.0201 10.8169 75.5571 12.3735 75.3381C14.2132 75.0831 15.3814 73.5922 16.2847 72.1073C17.185 70.6164 17.9558 68.9905 19.1662 67.7096C21.5568 65.1807 25.3837 64.3378 28.7047 65.2197C29.3882 65.3997 30.0597 65.6457 30.704 65.9517C33.4168 67.2236 35.7262 69.4915 36.9968 72.1493Z" fill="#3448C5"/>
    <path d="M117.578 116.655C121.025 122.294 124.199 128.105 127.207 133.991C129.332 138.148 131.359 142.357 133.37 146.575C130.254 147.625 126.18 146.347 125.319 142.957C125.012 141.766 124.864 140.467 124.087 139.516C123.269 138.508 121.935 138.112 120.709 137.666C115.47 135.743 115.518 128.636 116.087 124.073C116.401 121.535 117.319 119.181 117.578 116.658V116.655Z" fill="#3448C5"/>
    <path d="M149.476 251.722C149.93 252.373 150.252 253.141 150.406 254.005C151.02 257.385 148.259 260.463 145.73 262.302C144.375 263.295 142.788 264.192 141.132 264.576C139.573 264.942 137.775 264.567 136.965 266.325C136.462 267.399 136.589 268.653 136.83 269.82C137.065 270.984 137.417 272.148 137.327 273.329C136.992 277.895 131.717 278.315 128.3 278.153C126.635 278.072 124.825 278.189 123.546 279.263C123.413 279.377 123.284 279.497 123.172 279.626C122.618 279.293 122.082 278.918 121.57 278.513C118.412 275.996 116.355 272.034 116.563 267.957C116.765 264.012 119.165 260.322 122.829 258.723C126.349 257.19 130.215 258.252 133.777 259.02C135.622 259.413 137.507 259.764 139.407 259.614C141.533 259.449 143.544 258.594 145.239 257.322C147.181 255.873 148.605 253.915 149.479 251.719L149.476 251.722Z" fill="#3448C5"/>
    <path d="M44.8824 72.3293C44.8553 72.3383 44.8282 72.3443 44.8011 72.3503C44.3735 72.4343 43.958 72.1583 43.8737 71.7323C43.407 69.3894 43.9731 67.0286 45.4725 65.0877C47.261 62.7688 50.1876 61.3199 53.4966 61.1099C53.9301 61.0829 54.3065 61.4129 54.3336 61.8449C54.3607 62.2769 54.0325 62.6518 53.5959 62.6788C50.7386 62.8588 48.2335 64.0858 46.722 66.0446C45.5056 67.6226 45.0419 69.5334 45.4183 71.4263C45.4966 71.8253 45.2587 72.2123 44.8793 72.3293H44.8824Z" fill="#3448C5"/>
    <path d="M21.1383 83.9655C20.9486 84.0255 20.7348 84.0105 20.5451 83.9145C20.1567 83.7165 20.0032 83.2426 20.2019 82.8556C21.7134 79.9158 24.2155 77.8219 27.0638 77.1109C29.4484 76.517 31.8481 76.937 33.8173 78.2989C34.1756 78.5449 34.2629 79.0368 34.016 79.3938C33.7691 79.7508 33.2753 79.8378 32.917 79.5918C31.3272 78.4909 29.3822 78.1519 27.4462 78.6379C25.0404 79.2378 22.9117 81.0377 21.605 83.5756C21.5056 83.7705 21.331 83.9085 21.1353 83.9685L21.1383 83.9655Z" fill="#F3F4F7"/>
    <path d="M45.4574 81.5449C44.7137 81.7729 43.9248 81.7639 43.1751 81.5089C42.1815 81.173 41.5041 80.573 41.221 79.778C41.1006 79.4361 41.2783 79.0611 41.6185 78.9411C41.9617 78.8181 42.3351 78.9981 42.4585 79.3371C42.6422 79.85 43.1781 80.126 43.5967 80.267C44.238 80.483 44.9215 80.423 45.5206 80.099C46.183 79.7421 46.6708 79.1091 46.8605 78.3681C46.9508 78.0171 47.3061 77.8042 47.6584 77.8942C48.0107 77.9842 48.2244 78.3411 48.1341 78.6891C47.8541 79.784 47.1315 80.717 46.1469 81.248C45.9241 81.3679 45.6923 81.4669 45.4574 81.5389V81.5449Z" fill="#0A0C0F"/>
    <path d="M40.3961 84.8388C39.8 85.0217 39.1587 85.0697 38.5294 84.9677C38.1711 84.9108 37.9272 84.5718 37.9874 84.2148C38.0446 83.8578 38.3818 83.6148 38.7431 83.6748C39.4989 83.7978 40.2757 83.6028 40.8719 83.1409C41.4108 82.7209 41.739 82.1209 41.7932 81.449C41.8293 81.011 41.7902 80.408 41.3928 80.036C41.1278 79.7871 41.1158 79.3731 41.3626 79.1091C41.6095 78.8451 42.0281 78.8301 42.293 79.0791C42.9012 79.6491 43.1903 80.528 43.106 81.554C43.0186 82.5919 42.5158 83.5218 41.6818 84.1698C41.2964 84.4698 40.8628 84.6918 40.4022 84.8358L40.3961 84.8388Z" fill="#0A0C0F"/>
    <path d="M40.1341 76.9732C40.1341 76.9732 38.466 77.9572 38.3004 79.1541C38.1348 80.354 41.5914 80.873 42.3682 80.366C43.145 79.8591 44.0453 76.4933 42.874 76.1663C41.7028 75.8393 40.1341 76.9702 40.1341 76.9702V76.9732Z" fill="#0A0C0F"/>
    <path d="M43.3408 92.4492C42.9614 92.5662 42.579 92.6682 42.1876 92.7522C41.8323 92.8272 41.4831 92.6022 41.4078 92.2482C41.3325 91.8942 41.5523 91.5492 41.9136 91.4712C45.5117 90.7033 48.6611 88.2674 51.7112 85.9126C52.1989 85.5376 52.6807 85.1656 53.1564 84.8056C53.4454 84.5867 53.8579 84.6436 54.0777 84.9316C54.2975 85.2196 54.2403 85.6306 53.9513 85.8496C53.4786 86.2066 53.0028 86.5725 52.5181 86.9475C49.8022 89.0444 46.7582 91.3932 43.3438 92.4492H43.3408Z" fill="#C2C9D6"/>
    <path d="M93.7045 44.0322C93.8279 43.9962 93.9544 43.9722 94.0808 43.9722C94.4211 43.9722 94.6017 44.1672 94.8817 44.3111C95.3786 44.5631 95.9687 44.5121 96.1192 43.9002C96.2999 43.1652 95.1497 41.4733 94.2284 41.5483C93.0059 41.6473 92.0425 42.5383 92.0123 43.7802C92.0003 44.3471 92.7621 44.3501 93.2047 44.2032C93.3673 44.1492 93.5329 44.0802 93.7045 44.0322Z" fill="#D1D6E0"/>
    <path d="M93.7404 38.7823C92.7137 39.0763 93.2466 40.9422 94.2764 40.6482C95.3031 40.3542 94.7671 38.4883 93.7404 38.7823Z" fill="#D1D6E0"/>
    <path d="M96.4714 40.3603C95.6042 40.0873 95.1044 41.6622 95.9746 41.9352C96.8417 42.2082 97.3415 40.6332 96.4714 40.3603Z" fill="#D1D6E0"/>
    <path d="M91.648 40.3001C90.7868 40.5911 91.3198 42.154 92.1809 41.863C93.042 41.572 92.5091 40.0091 91.648 40.3001Z" fill="#D1D6E0"/>
    <path d="M65.8174 110.22C65.2152 109.503 49.1941 95.3739 44.1659 99.0517C40.2397 101.926 32.041 108.576 31.2882 113.241C31.0263 114.858 32.8208 116.13 33.9348 117.336C37.2709 120.941 40.8298 124.934 45.4064 127.196C46.4 127.688 48.0801 128.666 49.2152 128.615C50.9074 128.543 50.5792 128.036 51.082 126.296C51.916 123.398 52.9789 120.56 54.2344 117.819C57.7692 119.423 66.4075 122.111 69.015 117.786C70.6319 115.107 67.7414 112.518 65.8174 110.22Z" fill="white"/>
    <path d="M51.4824 126.041C51.3439 126.083 51.1903 126.08 51.0428 126.023C50.7056 125.888 50.543 125.507 50.6755 125.171C50.8621 124.703 50.9976 124.199 51.1422 123.665C51.2295 123.338 51.3168 123.014 51.4162 122.696C51.8558 121.295 53.033 118.038 53.7707 116.856C53.9634 116.547 54.3669 116.454 54.677 116.646C54.9841 116.838 55.0804 117.24 54.8877 117.549C54.2886 118.512 53.1926 121.424 52.6687 123.089C52.5754 123.389 52.4911 123.698 52.4098 124.007C52.2622 124.553 52.1117 125.117 51.8949 125.66C51.8196 125.852 51.66 125.987 51.4794 126.044L51.4824 126.041Z" fill="#C2C9D6"/>
    <path d="M66.1907 117.647C66.007 117.704 65.7993 117.68 65.6277 117.566C64.9562 117.116 64.074 116.555 63.2069 116.225C62.8666 116.096 62.698 115.719 62.8275 115.38C62.957 115.044 63.3364 114.873 63.6766 115.002C64.6642 115.38 65.6307 115.988 66.3593 116.477C66.6604 116.678 66.7417 117.086 66.537 117.386C66.4496 117.515 66.3232 117.602 66.1877 117.647H66.1907Z" fill="#C2C9D6"/>
    <path d="M67.7535 115.332C67.5397 115.398 67.2958 115.353 67.1152 115.191C66.7057 114.819 66.227 114.477 65.694 114.174C65.3779 113.994 65.2695 113.595 65.4501 113.28C65.6308 112.968 66.0312 112.857 66.3474 113.037C66.9616 113.388 67.5186 113.787 68.0004 114.222C68.2684 114.465 68.2894 114.879 68.0455 115.146C67.9642 115.236 67.8619 115.299 67.7535 115.332Z" fill="#C2C9D6"/>
    <path d="M66.5913 120.368C63.9718 121.178 61.0633 120.197 58.6425 119.384L58.0584 119.189C56.1374 118.55 53.5059 117.671 51.8047 116.867C51.4765 116.711 51.338 116.321 51.4946 115.994C51.6511 115.668 52.0456 115.53 52.3707 115.686C53.9997 116.456 56.586 117.32 58.4739 117.947L59.064 118.145C61.7016 119.033 64.9865 120.14 67.4193 118.547C68.4791 117.854 69.0331 117.107 69.1114 116.264C69.2258 115.059 68.3497 113.547 66.507 111.765C63.8815 109.23 61.6805 107.685 59.1333 105.897C58.4106 105.39 57.67 104.871 56.8931 104.307C52.5333 101.154 48.589 98.7515 44.4761 101.259C42.1336 102.687 39.0565 105.351 35.332 109.176C35.0791 109.437 34.6636 109.443 34.4016 109.191C34.1397 108.939 34.1336 108.525 34.3866 108.264C38.1893 104.361 41.3508 101.628 43.7896 100.143C48.589 97.2186 53.0904 99.9424 57.6639 103.248C58.4377 103.806 59.1724 104.322 59.889 104.826C62.376 106.572 64.7245 108.219 67.4223 110.823C69.5962 112.923 70.5777 114.741 70.4212 116.384C70.3038 117.629 69.536 118.727 68.1419 119.639C67.6421 119.966 67.1212 120.206 66.5883 120.368H66.5913Z" fill="#C2C9D6"/>
    <path d="M35.9851 141.478C29.9031 143.356 29.4755 142.477 29.2166 141.946C29.057 141.619 29.1925 141.229 29.5207 141.07C29.8097 140.932 30.159 141.022 30.3426 141.277C32.1402 141.97 47.6404 136.603 72.5015 124.571C97.3626 112.536 111.177 103.713 111.74 101.874C111.649 101.574 111.791 101.244 112.083 101.1C112.405 100.944 112.803 101.079 112.962 101.403C113.299 102.096 113.932 103.389 101.819 110.571C94.3276 115.014 84.1206 120.404 73.0766 125.75C62.0325 131.096 51.4732 135.76 43.3378 138.883C40.2516 140.068 37.8519 140.905 35.9881 141.481L35.9851 141.478Z" fill="#0A0C0F"/>
    <path d="M31.7458 147.616C29.4003 148.342 29.057 147.817 28.8222 147.463C28.6234 147.16 28.7077 146.755 29.0118 146.557C29.2828 146.38 29.6381 146.428 29.8519 146.659C31.7367 147.115 46.5444 139.747 69.87 124.526C93.1955 109.305 105.887 98.7218 106.224 96.8199C106.097 96.5319 106.197 96.1899 106.468 96.0129C106.772 95.8149 107.178 95.8989 107.377 96.2019C107.801 96.8469 108.59 98.0498 97.3957 106.77C90.4706 112.167 80.9501 118.863 70.5926 125.621C60.232 132.383 50.2689 138.4 42.5369 142.57C36.9155 145.6 33.6637 147.025 31.7488 147.619L31.7458 147.616Z" fill="#0A0C0F"/>
    <path d="M82.1485 147.52C70.3306 151.171 59.0397 153.841 50.1906 155.068C40.3269 156.438 34.9253 155.863 34.1274 153.358C34.019 153.013 34.2087 152.644 34.5549 152.536H34.558C34.9042 152.428 35.2715 152.62 35.3799 152.962C35.7985 154.276 39.8602 155.179 50.007 153.769C59.2023 152.491 71.0773 149.644 83.4221 145.747C95.7759 141.85 107.127 137.378 115.383 133.151C124.497 128.486 127.297 125.42 126.879 124.106C126.77 123.761 126.96 123.392 127.306 123.284H127.309C127.655 123.176 128.023 123.368 128.131 123.71C128.926 126.215 124.84 129.782 115.982 134.318C107.66 138.578 96.2365 143.08 83.8165 146.998C83.2595 147.175 82.6995 147.349 82.1425 147.52H82.1485Z" fill="#0A0C0F"/>
    <path d="M61.5088 194.518C58.519 195.442 56.3481 195.442 55.3485 194.233C55.1166 193.954 55.1558 193.54 55.4358 193.312C55.7158 193.081 56.1313 193.12 56.3601 193.399C58.7659 196.303 76.2864 187.34 97.5856 169.836C118.885 152.332 131.049 136.898 128.643 133.994C128.411 133.715 128.45 133.301 128.734 133.073C129.011 132.845 129.426 132.884 129.658 133.163C133.503 137.807 116.434 156.046 98.4226 170.85C85.0963 181.802 70.0116 191.893 61.5088 194.521V194.518Z" fill="#0A0C0F"/>
    <path d="M71.3062 182.498C70.0778 182.876 68.8945 183.227 67.7534 183.551C54.4271 187.312 53.587 185.345 53.2709 184.604C53.1293 184.271 53.2829 183.887 53.6171 183.746C53.9543 183.602 54.3367 183.758 54.4782 184.091C54.674 184.55 57.3747 185.117 67.3951 182.291C75.5998 179.975 86.1892 176.123 97.2091 171.443C108.229 166.764 118.352 161.823 125.71 157.527C134.695 152.287 136.155 149.95 135.96 149.491C135.818 149.158 135.972 148.774 136.306 148.633C136.643 148.489 137.025 148.645 137.167 148.978C137.483 149.719 138.326 151.684 126.373 158.658C118.966 162.981 108.789 167.949 97.721 172.649C88.1824 176.699 78.954 180.137 71.3002 182.501L71.3062 182.498Z" fill="#0A0C0F"/>
    <path d="M159.384 127.091C158.394 126.782 157.427 126.29 156.536 125.654C154.657 124.313 153.107 122.348 152.339 120.204C151.469 117.765 151.71 115.335 153.022 113.364C155.832 109.137 161.594 108.777 166.225 108.486C166.876 108.444 167.508 108.405 168.116 108.357C174.632 107.832 178.531 105.486 181.162 100.519C181.256 100.342 181.355 100.162 181.454 99.9788C182.144 98.7218 182.858 97.4199 182.481 96.208C182.373 95.863 182.569 95.494 182.915 95.389C183.261 95.284 183.628 95.476 183.737 95.821C184.276 97.5609 183.348 99.2498 182.608 100.606C182.511 100.783 182.415 100.957 182.325 101.128C179.458 106.542 175.24 109.095 168.222 109.659C167.61 109.707 166.969 109.749 166.31 109.791C161.745 110.076 156.569 110.403 154.121 114.084C152.739 116.163 153.065 118.32 153.579 119.763C154.564 122.513 157.111 125.012 159.776 125.84L158.815 125.981L159.424 126.383L158.746 126.461L159.387 127.091H159.384Z" fill="#0A0C0F"/>
    <path d="M178.142 90.2963L179.261 76.1029C179.293 75.6901 179.656 75.3815 180.07 75.4139L180.538 75.4505C180.952 75.483 181.262 75.8442 181.23 76.2569L180.111 90.4503C180.079 90.8631 179.716 91.1717 179.302 91.1393L178.833 91.1027C178.419 91.0702 178.109 90.709 178.142 90.2963Z" fill="#0A0C0F"/>
    <path d="M185.653 90.8813L186.772 76.6878C186.804 76.2751 187.167 75.9664 187.581 75.9989L188.049 76.0355C188.464 76.0679 188.773 76.4291 188.741 76.8418L187.622 91.0353C187.59 91.448 187.227 91.7567 186.813 91.7243L186.348 91.6879C185.933 91.6554 185.624 91.2942 185.656 90.8815L185.653 90.8813Z" fill="#0A0C0F"/>
    <path d="M175.818 90.2591L176.339 83.6408C176.404 82.8154 177.13 82.1981 177.958 82.263L190.625 83.254C191.454 83.3188 192.073 84.0413 192.008 84.8667L191.486 91.4849C191.227 94.7716 188.34 97.2298 185.041 96.9717L181.325 96.6809C178.026 96.4229 175.559 93.5457 175.818 90.2591Z" fill="#0A0C0F"/>
    <path d="M132.63 21.8186L81.7421 32.8849C80.1162 33.2389 78.5144 32.2129 78.1591 30.593L74.6785 14.706C74.3232 13.0861 75.353 11.4902 76.9789 11.1362L127.866 0.0698589C129.492 -0.28412 131.094 0.741819 131.449 2.36172L134.93 18.2488C135.285 19.8687 134.255 21.4646 132.63 21.8186Z" fill="#0A0C0F"/>
    <path d="M87.5607 12.2156L83.9189 13.0074C80.6842 13.7107 78.6342 16.8933 79.3401 20.1161L80.1348 23.7445C80.8407 26.9672 84.0351 29.0097 87.2698 28.3064L90.9116 27.5146C94.1463 26.8114 96.1963 23.6287 95.4904 20.4059L94.6957 16.7776C93.9898 13.5548 90.7954 11.5123 87.5607 12.2156Z" fill="#C2C9D6"/>
    <path d="M87.6555 16.3319C87.8663 16.8869 87.5893 17.5048 87.0323 17.7178C86.4753 17.9278 85.855 17.6488 85.6412 17.0968C85.4275 16.5449 85.7105 15.9239 86.2645 15.7109C86.8215 15.5009 87.4418 15.7769 87.6555 16.3319Z" fill="#0A0C0F"/>
    <path d="M88.9051 22.6166C89.1158 23.1715 88.8388 23.7895 88.2818 24.0025C87.7248 24.2125 87.1045 23.9365 86.8908 23.3815C86.677 22.8265 86.96 22.2086 87.514 21.9956C88.071 21.7856 88.6913 22.0616 88.9051 22.6166Z" fill="#0A0C0F"/>
    <path d="M101.292 9.14508L104.934 8.3533C108.167 7.65042 111.363 9.69425 112.069 12.9153L112.863 16.5436C113.569 19.7646 111.518 22.9495 108.285 23.6523L104.643 24.4441C101.41 25.147 98.2133 23.1032 97.5078 19.8822L96.7131 16.2538C96.0077 13.0328 98.059 9.84797 101.292 9.14508Z" fill="#C2C9D6"/>
    <path d="M105.029 12.4681C105.239 13.0231 104.962 13.641 104.405 13.854C103.848 14.064 103.228 13.788 103.014 13.2331C102.804 12.6781 103.081 12.0601 103.638 11.8472C104.195 11.6372 104.815 11.9131 105.029 12.4681Z" fill="#0A0C0F"/>
    <path d="M106.278 18.7528C106.489 19.3078 106.212 19.9257 105.655 20.1387C105.098 20.3487 104.478 20.0727 104.264 19.5177C104.053 18.9628 104.333 18.3448 104.887 18.1318C105.444 17.9218 106.064 18.1978 106.278 18.7528Z" fill="#0A0C0F"/>
    <path d="M118.664 5.28278L122.306 4.491C125.539 3.78812 128.735 5.83194 129.441 9.05295L130.236 12.6813C130.941 15.9023 128.89 19.0871 125.657 19.79L122.015 20.5818C118.782 21.2847 115.585 19.2409 114.88 16.0199L114.085 12.3915C113.38 9.17047 115.431 5.98566 118.664 5.28278Z" fill="#C2C9D6"/>
    <path d="M122.402 8.60435C122.612 9.15931 122.332 9.77728 121.778 9.99026C121.224 10.2032 120.601 9.92127 120.387 9.3693C120.176 8.81433 120.453 8.19637 121.01 7.98338C121.567 7.7734 122.188 8.04938 122.402 8.60435Z" fill="#0A0C0F"/>
    <path d="M123.648 14.889C123.859 15.444 123.582 16.0619 123.025 16.2749C122.468 16.4849 121.848 16.2089 121.634 15.654C121.423 15.099 121.7 14.481 122.257 14.2681C122.814 14.0581 123.434 14.334 123.648 14.889Z" fill="#0A0C0F"/>
</svg>
